<?xml version="1.0" standalone="no"?>
<!DOCTYPE svg PUBLIC "-//W3C//DTD SVG 20010904//EN"
 "http://www.w3.org/TR/2001/REC-SVG-20010904/DTD/svg10.dtd">
<svg version="1.0" xmlns="http://www.w3.org/2000/svg"
 width="512.000000pt" height="512.000000pt" viewBox="0 0 512.000000 512.000000"
 preserveAspectRatio="xMidYMid meet">

<g transform="translate(0.000000,512.000000) scale(0.100000,-0.100000)"
fill="#000000" stroke="none">
<path d="M2395 5114 c-315 -32 -482 -67 -714 -151 -241 -87 -500 -232 -716
-401 -115 -90 -354 -338 -447 -462 -475 -639 -632 -1432 -433 -2189 48 -180
92 -297 180 -476 132 -269 269 -460 489 -681 221 -220 412 -357 681 -489 247
-121 469 -192 745 -237 195 -31 565 -31 760 0 276 45 498 116 745 237 269 132
460 269 681 489 220 221 357 412 489 681 88 179 132 296 180 476 199 757 42
1550 -433 2189 -93 124 -332 372 -447 462 -379 297 -815 479 -1285 538 -91 11
-408 21 -475 14z m405 -229 c212 -23 355 -55 556 -126 180 -63 491 -227 481
-253 -5 -11 -890 -1232 -906 -1249 -5 -4 -37 3 -72 17 -192 76 -406 76 -598 0
-35 -14 -67 -21 -72 -17 -15 16 -901 1238 -906 1249 -6 15 135 100 280 169
385 183 816 256 1237 210z m-1495 -784 c97 -135 179 -250 182 -257 2 -6 -12
-25 -33 -40 -52 -40 -191 -198 -260 -297 -118 -167 -227 -420 -268 -623 -102
-496 41 -1031 378 -1416 262 -299 602 -488 1001 -555 119 -20 391 -20 510 0
399 67 739 256 1001 555 337 385 480 920 378 1416 -41 203 -150 456 -268 623
-69 99 -208 257 -260 297 -21 15 -35 34 -33 40 6 16 354 495 377 519 17 18 20
17 86 -41 352 -303 622 -746 734 -1203 50 -206 64 -324 64 -554 1 -218 -8
-305 -49 -500 -188 -887 -903 -1601 -1790 -1790 -192 -41 -282 -50 -495 -50
-213 0 -303 9 -495 50 -887 188 -1601 903 -1790 1790 -41 195 -50 282 -49 500
0 230 14 348 64 554 112 457 382 900 734 1203 66 58 69 59 86 41 10 -10 97
-128 195 -262z m519 -715 l195 -269 -49 -55 c-55 -62 -129 -197 -154 -281 -59
-202 -31 -434 76 -616 53 -90 183 -220 273 -273 242 -142 548 -142 790 0 90
53 220 183 273 273 107 182 135 414 76 616 -25 84 -99 219 -154 281 l-49 55
195 269 c108 148 198 271 201 274 10 10 191 -190 250 -277 359 -524 345 -1198
-35 -1698 -105 -138 -255 -273 -407 -365 -449 -275 -1041 -275 -1490 0 -799
488 -940 1562 -295 2243 51 54 96 96 101 95 4 -2 95 -124 203 -272z m880 -292
c233 -56 416 -291 416 -534 0 -70 -27 -179 -62 -250 -43 -88 -160 -205 -248
-248 -223 -109 -465 -69 -641 107 -225 225 -225 555 1 781 146 147 324 195
534 144z"/>
</g>
</svg>
